# xmcd
# Copyright (C) 1995-1998 Ti Kan
#
# Track frame offsets:
#       150
#       4195
#       23408
#       37106
#       54750
#       78112
#       98301
#       126442
#       140707
#       153025
#       167543
#       189208
#
# Disc length: 2891 seconds
#
# Revision: 0
# Processed by: cddbd v1.5.2PL0 Copyright (c) Steve Scherf et al.
# Submitted via: CD-Import v1.0
#
DISCID=7d0b490c
DTITLE=Portobello - My Head Is My Pillow Is My Head
DYEAR=07
DGENRE=
TTITLE0=Star-Ter
TTITLE1=Playing Dead
TTITLE2=There Is Always Someone Watching You
TTITLE3=Lycopodium
TTITLE4=Force Of Habit
TTITLE5=Speak Spit Spoil
TTITLE6=Hit The Ground
TTITLE7=Crashing Cars
TTITLE8=Lumberjack
TTITLE9=In The Music We Get Lost
TTITLE10=Pirate Frequencies
TTITLE11=Data Track
EXTD=
EXTT0=
EXTT1=
EXTT2=
EXTT3=
EXTT4=
EXTT5=
EXTT6=
EXTT7=
EXTT8=
EXTT9=
EXTT10=
EXTT11=
PLAYORDER=
